<svg xmlns="http://www.w3.org/2000/svg" width="30.196" height="30.23" viewBox="0 0 30.196 30.23">
  <g id="Group_54737" data-name="Group 54737" transform="translate(7186.751 2609.29)">
    <path id="Path_42484" data-name="Path 42484" d="M27.926,2.726a15.331,15.331,0,0,1-1.22,2.338H1.254A15.331,15.331,0,0,1,.034,2.726Z" transform="translate(-7185.633 -2591.071)" fill="#fff"/>
    <path id="Path_42485" data-name="Path 42485" d="M29.4,2.657A13.437,13.437,0,0,1,28.649,5H.758A13.438,13.438,0,0,1,.012,2.657Z" transform="translate(-7186.357 -2593.341)" fill="#b12233"/>
    <path id="Path_42486" data-name="Path 42486" d="M30.13,2.588a13.987,13.987,0,0,1-.373,2.338H.374A18.634,18.634,0,0,1,0,2.588Z" transform="translate(-7186.719 -2595.61)" fill="#fff"/>
    <path id="Path_42487" data-name="Path 42487" d="M25.522,2.794a15.48,15.48,0,0,1-1.83,2.338H1.9A15.48,15.48,0,0,1,.07,2.794Z" transform="translate(-7184.449 -2588.835)" fill="#b12233"/>
    <path id="Path_42488" data-name="Path 42488" d="M16.306,2.931A15.151,15.151,0,0,1,8.274,5.269,15.269,15.269,0,0,1,.208,2.931Z" transform="translate(-7179.911 -2584.329)" fill="#b12233"/>
    <path id="Path_42489" data-name="Path 42489" d="M21.916,2.863A15.861,15.861,0,0,1,19.069,5.2H2.971A18.65,18.65,0,0,1,.124,2.863Z" transform="translate(-7182.673 -2586.565)" fill="#fff"/>
    <path id="Path_42490" data-name="Path 42490" d="M21.916,4.515H.124A18.65,18.65,0,0,1,2.971,2.177h16.1a15.861,15.861,0,0,1,2.847,2.338" transform="translate(-7182.673 -2609.128)" fill="#fff"/>
    <path id="Path_42491" data-name="Path 42491" d="M16.273,4.446H.209A10.474,10.474,0,0,1,1.7,3.633l.136-.068.508-.237.237-.1a15.045,15.045,0,0,1,5.66-1.118,15.151,15.151,0,0,1,8.032,2.338" transform="translate(-7179.877 -2611.397)" fill="#b12233"/>
    <path id="Path_42492" data-name="Path 42492" d="M25.522,4.551H.07l.407-.61.068-.068A15.674,15.674,0,0,1,1.9,2.246H23.692a13.684,13.684,0,0,1,1.83,2.3" transform="translate(-7184.449 -2606.859)" fill="#b12233"/>
    <path id="Path_42493" data-name="Path 42493" d="M29.4,4.72H.012A14.426,14.426,0,0,1,.758,2.382H28.649A14.426,14.426,0,0,1,29.4,4.72" transform="translate(-7186.357 -2602.385)" fill="#b12233"/>
    <path id="Path_42494" data-name="Path 42494" d="M27.926,4.652H.034l.2-.441A10.211,10.211,0,0,1,.78,3.161l.474-.847H26.706a15.331,15.331,0,0,1,1.22,2.338" transform="translate(-7185.633 -2604.622)" fill="#fff"/>
    <path id="Path_42495" data-name="Path 42495" d="M30.13,4.789H0l.034-.271.1-.881C.2,3.264.272,2.858.374,2.451H29.757a13.987,13.987,0,0,1,.373,2.338" transform="translate(-7186.719 -2600.116)" fill="#fff"/>
    <path id="Path_42496" data-name="Path 42496" d="M30.2,3.672c0,.407,0,.779-.034,1.152H.034C0,4.452,0,4.079,0,3.672S0,2.893.034,2.52H30.163c.034.373.034.746.034,1.152" transform="translate(-7186.751 -2597.847)" fill="#b12233"/>
    <path id="Path_42497" data-name="Path 42497" d="M15.115,2.109V18.343H.068C.034,18,0,17.563,0,17.224c0-.441.034-.779.068-1.186L.1,15.767a3.619,3.619,0,0,1,.1-.847c.034-.407.136-.847.2-1.22a21.014,21.014,0,0,1,.779-2.338l.2-.407A10.037,10.037,0,0,1,1.9,9.9l.508-.847.407-.61.034-.068c.441-.542.881-1.118,1.39-1.661A15.521,15.521,0,0,1,7.083,4.447,12.972,12.972,0,0,1,8.574,3.6l.136-.1.542-.2.237-.1a14.11,14.11,0,0,1,5.626-1.084" transform="translate(-7186.751 -2611.365)" fill="#3c3b6d"/>
    <path id="Path_42498" data-name="Path 42498" d="M1.277,2.131l.2.644h.712l-.576.407.2.678-.542-.407L.735,3.86l.2-.678L.362,2.775h.712Z" transform="translate(-7174.839 -2610.628)" fill="#fff"/>
    <path id="Path_42499" data-name="Path 42499" d="M1.574,3.361l.034.169-.2-.169-.339-.237-.339.237-.2.169.034-.169.169-.474L.252,2.548.388,2.48H.862L.93,2.243l.237-.1.1.339h.712L1.4,2.887Z" transform="translate(-7178.454 -2610.309)" fill="#fff"/>
    <path id="Path_42500" data-name="Path 42500" d="M1.277,2.227l.2.644h.712l-.576.407.2.678-.542-.407-.542.407.2-.678L.362,2.871h.712Z" transform="translate(-7174.839 -2607.474)" fill="#fff"/>
    <path id="Path_42501" data-name="Path 42501" d="M1.164,2.227l.2.644h.712L1.5,3.278l.2.678-.542-.407-.542.407.2-.678L.249,2.871H.961Z" transform="translate(-7178.549 -2607.474)" fill="#fff"/>
    <path id="Path_42502" data-name="Path 42502" d="M1.052,2.227l.2.644h.712l-.576.407.2.678-.542-.407-.542.407.2-.678L.137,2.871H.848Z" transform="translate(-7182.259 -2607.474)" fill="#fff"/>
    <path id="Path_42503" data-name="Path 42503" d="M1.277,2.323l.2.644h.712l-.576.407.2.644-.542-.373-.542.373.2-.644L.362,2.967h.712Z" transform="translate(-7174.839 -2604.316)" fill="#fff"/>
    <path id="Path_42504" data-name="Path 42504" d="M1.164,2.323l.2.644h.712L1.5,3.374l.2.644-.542-.373-.542.373.2-.644L.249,2.967H.961Z" transform="translate(-7178.549 -2604.316)" fill="#fff"/>
    <path id="Path_42505" data-name="Path 42505" d="M1.052,2.323l.2.644h.712l-.576.407.2.644-.542-.373-.542.373.2-.644L.137,2.967H.848Z" transform="translate(-7182.259 -2604.316)" fill="#fff"/>
    <path id="Path_42506" data-name="Path 42506" d="M.752,2.847l.2.644L.413,3.118.04,3.356c.169-.339.339-.678.542-1.017l.034.1h.678Z" transform="translate(-7185.436 -2603.8)" fill="#fff"/>
    <path id="Path_42507" data-name="Path 42507" d="M1.277,2.419l.2.644h.712l-.576.407.2.644-.542-.373-.542.373.2-.644L.362,3.063h.712Z" transform="translate(-7174.839 -2601.162)" fill="#fff"/>
    <path id="Path_42508" data-name="Path 42508" d="M1.164,2.419l.2.644h.712L1.5,3.47l.2.644-.542-.373-.542.373.2-.644L.249,3.063H.961Z" transform="translate(-7178.549 -2601.162)" fill="#fff"/>
    <path id="Path_42509" data-name="Path 42509" d="M1.052,2.419l.2.644h.712l-.576.407.2.644-.542-.373-.542.373.2-.644L.137,3.063H.848Z" transform="translate(-7182.259 -2601.162)" fill="#fff"/>
    <path id="Path_42510" data-name="Path 42510" d="M.939,2.419l.2.644h.712l-.576.407.2.644L.939,3.741.4,4.114.6,3.47.024,3.063H.735Z" transform="translate(-7185.972 -2601.162)" fill="#fff"/>
    <path id="Path_42511" data-name="Path 42511" d="M1.277,2.515l.2.644h.712l-.576.407.2.678-.542-.407-.542.407.2-.678L.362,3.159h.712Z" transform="translate(-7174.839 -2598.004)" fill="#fff"/>
    <path id="Path_42512" data-name="Path 42512" d="M1.164,2.515l.2.644h.712L1.5,3.566l.2.678-.542-.407-.542.407.2-.678L.249,3.159H.961Z" transform="translate(-7178.549 -2598.004)" fill="#fff"/>
    <path id="Path_42513" data-name="Path 42513" d="M1.052,2.515l.2.644h.712l-.576.407.2.678-.542-.407-.542.407.2-.678L.137,3.159H.848Z" transform="translate(-7182.259 -2598.004)" fill="#fff"/>
    <path id="Path_42514" data-name="Path 42514" d="M.939,2.515l.2.644h.712l-.576.407.2.678L.939,3.837.4,4.244l.2-.678L.024,3.159H.735Z" transform="translate(-7185.972 -2598.004)" fill="#fff"/>
    <path id="Path_42515" data-name="Path 42515" d="M1.188,2.467l.2.644H2.1l-.576.407.2.678-.542-.407L.646,4.2l.2-.678L.307,3.111H.985Z" transform="translate(-7176.661 -2599.583)" fill="#fff"/>
    <path id="Path_42516" data-name="Path 42516" d="M1.108,2.467l.2.644h.712l-.576.407.2.678-.542-.407L.566,4.2l.2-.678L.193,3.111H.9Z" transform="translate(-7180.404 -2599.583)" fill="#fff"/>
    <path id="Path_42517" data-name="Path 42517" d="M1,2.467l.2.644H1.91l-.576.407.2.678L1,3.789.453,4.2l.2-.678L.08,3.111H.792Z" transform="translate(-7184.117 -2599.583)" fill="#fff"/>
    <path id="Path_42518" data-name="Path 42518" d="M.07,2.893l.2.644L0,3.333a7.22,7.22,0,0,1,.1-.847H.612Z" transform="translate(-7186.686 -2598.965)" fill="#fff"/>
    <path id="Path_42519" data-name="Path 42519" d="M1.188,2.371l.2.644H2.1l-.576.407.2.644-.542-.407-.542.407.2-.644L.307,3.015H.985Z" transform="translate(-7176.661 -2602.738)" fill="#fff"/>
    <path id="Path_42520" data-name="Path 42520" d="M1.108,2.371l.2.644h.712l-.576.407.2.644-.542-.407-.542.407.2-.644L.193,3.015H.9Z" transform="translate(-7180.404 -2602.738)" fill="#fff"/>
    <path id="Path_42521" data-name="Path 42521" d="M1,2.371l.2.644H1.91l-.576.407.2.644L1,3.659l-.542.407.2-.644L.08,3.015H.792Z" transform="translate(-7184.117 -2602.738)" fill="#fff"/>
    <path id="Path_42522" data-name="Path 42522" d="M1.188,2.275l.2.644H2.1l-.576.407L1.73,4,1.188,3.6.646,4l.2-.678L.307,2.919H.985Z" transform="translate(-7176.661 -2605.895)" fill="#fff"/>
    <path id="Path_42523" data-name="Path 42523" d="M1.108,2.275l.2.644h.712l-.576.407L1.65,4,1.108,3.6.566,4l.2-.678L.193,2.919H.9Z" transform="translate(-7180.404 -2605.895)" fill="#fff"/>
    <path id="Path_42524" data-name="Path 42524" d="M1.337,3.6,1.472,4,.93,3.6H.9L.354,4,.489,3.6l.068-.271L.083,2.987l.034-.068H.693l.2-.644.237.644h.678l-.576.407Z" transform="translate(-7184.028 -2605.898)" fill="#fff"/>
    <path id="Path_42525" data-name="Path 42525" d="M1.188,2.179l.2.644H2.1l-.576.407.2.644L1.188,3.5l-.542.373.2-.644L.307,2.823H.985Z" transform="translate(-7176.661 -2609.052)" fill="#fff"/>
    <path id="Path_42526" data-name="Path 42526" d="M1.108,2.179l.2.644h.712l-.576.407.2.644L1.108,3.5l-.542.373.2-.644L.193,2.823H.9Z" transform="translate(-7180.404 -2609.052)" fill="#fff"/>
  </g>
</svg>
