<svg xmlns="http://www.w3.org/2000/svg" width="30.538" height="30.337" viewBox="0 0 30.538 30.337">
  <g id="Group_24110" data-name="Group 24110" transform="translate(7269 2530.337)">
    <g id="Group_56721" data-name="Group 56721">
      <path id="Path_42557" data-name="Path 42557" d="M0,16.44a15.163,15.163,0,0,0,10.064,14.3V2.135A15.13,15.13,0,0,0,0,16.44" transform="translate(-7269 -2531.591)" fill="#062493"/>
      <path id="Path_42558" data-name="Path 42558" d="M10.658,16.44A15.13,15.13,0,0,0,.594,2.135V30.744a15.163,15.163,0,0,0,10.064-14.3" transform="translate(-7249.121 -2531.591)" fill="#ec2938"/>
      <path id="Path_42559" data-name="Path 42559" d="M5.345,2.109A14.725,14.725,0,0,0,.3,2.994V31.6a15.562,15.562,0,0,0,5.049.851,15.258,15.258,0,0,0,5.049-.851V2.994a14.443,14.443,0,0,0-5.049-.885" transform="translate(-7259.094 -2532.446)" fill="#fff"/>
    </g>
  </g>
</svg>
