<svg id="Group_56693" data-name="Group 56693" xmlns="http://www.w3.org/2000/svg" xmlns:xlink="http://www.w3.org/1999/xlink" width="806.229" height="375.344" viewBox="0 0 806.229 375.344">
  <defs>
    <clipPath id="clip-path">
      <rect id="Rectangle_14744" data-name="Rectangle 14744" width="806.229" height="375.344" fill="none"/>
    </clipPath>
  </defs>
  <g id="Group_56691" data-name="Group 56691" clip-path="url(#clip-path)">
    <path id="Path_72156" data-name="Path 72156" d="M471.279,361.084a26.5,26.5,0,0,1-12.37-2.76,20.3,20.3,0,0,1-8.24-7.55,20.594,20.594,0,0,1-2.91-10.92,20.971,20.971,0,0,1,2.87-10.99,20.389,20.389,0,0,1,7.85-7.51,24.577,24.577,0,0,1,22.18-.15,19.194,19.194,0,0,1,7.7,7.36,22.077,22.077,0,0,1,2.84,11.45c0,.46-.03.98-.08,1.57s-.1,1.14-.15,1.65h-33.48v-6.97h27.2l-4.6,2.07a11.4,11.4,0,0,0-1.3-5.59,9.609,9.609,0,0,0-3.6-3.72,10.479,10.479,0,0,0-5.36-1.34,10.708,10.708,0,0,0-5.4,1.34,9.385,9.385,0,0,0-3.64,3.75,11.83,11.83,0,0,0-1.3,5.71v1.84a11.643,11.643,0,0,0,1.49,5.94,9.827,9.827,0,0,0,4.21,3.91,14.372,14.372,0,0,0,6.4,1.34,15.345,15.345,0,0,0,5.78-1,14.013,14.013,0,0,0,4.56-2.99l6.36,6.9a18.5,18.5,0,0,1-7.13,4.94,26.324,26.324,0,0,1-9.88,1.72" fill="#472681"/>
    <path id="Path_72157" data-name="Path 72157" d="M488.979,360.474l18.47-24.21-.23,6.59-17.7-23.6h13.41l11.19,15.4-5.06.15,11.57-15.55h12.72l-17.78,23.37v-6.44l18.39,24.29H520.4l-11.72-16.4,4.98.69-11.65,15.71Z" fill="#472681"/>
    <path id="Path_72158" data-name="Path 72158" d="M535.939,375.334v-56.08h11.42v8.43l-.23,12.26.77,12.18v23.22Zm24.37-14.25a17.7,17.7,0,0,1-9.12-2.3,15.28,15.28,0,0,1-6.09-7.01,28.292,28.292,0,0,1-2.18-11.91,29.662,29.662,0,0,1,2.07-11.95,14.68,14.68,0,0,1,5.98-6.97,18.154,18.154,0,0,1,9.35-2.3,20.765,20.765,0,0,1,10.46,2.64,19.561,19.561,0,0,1,7.36,7.39,24.521,24.521,0,0,1,0,22.45,19.2,19.2,0,0,1-7.36,7.36,21.012,21.012,0,0,1-10.47,2.6m-2.07-9.8a10.3,10.3,0,0,0,5.33-1.38,10.066,10.066,0,0,0,3.75-3.95,12.458,12.458,0,0,0,1.42-6.09,12.321,12.321,0,0,0-1.42-6.13,10,10,0,0,0-9.08-5.29,10.462,10.462,0,0,0-5.36,1.38,9.813,9.813,0,0,0-3.75,3.91,14.216,14.216,0,0,0,0,12.22,9.859,9.859,0,0,0,3.75,3.95,10.462,10.462,0,0,0,5.36,1.38" fill="#472681"/>
    <path id="Path_72159" data-name="Path 72159" d="M584.979,360.474v-41.22H596.4V330.9l-1.61-3.37a13.275,13.275,0,0,1,5.9-6.63,20.017,20.017,0,0,1,9.88-2.26v11.03c-.51-.05-.97-.09-1.38-.11s-.84-.04-1.3-.04a11.2,11.2,0,0,0-7.93,2.8c-2.02,1.87-3.03,4.76-3.03,8.7v19.46h-11.95Z" fill="#472681"/>
    <path id="Path_72160" data-name="Path 72160" d="M633.94,361.084a26.5,26.5,0,0,1-12.37-2.76,20.3,20.3,0,0,1-8.24-7.55,20.6,20.6,0,0,1-2.911-10.92,20.98,20.98,0,0,1,2.87-10.99,20.4,20.4,0,0,1,7.851-7.51,24.577,24.577,0,0,1,22.18-.15,19.194,19.194,0,0,1,7.7,7.36,22.083,22.083,0,0,1,2.829,11.45c0,.46-.029.98-.079,1.57s-.1,1.14-.15,1.65H620.14v-6.97h27.2l-4.6,2.07a11.4,11.4,0,0,0-1.3-5.59,9.609,9.609,0,0,0-3.6-3.72,10.48,10.48,0,0,0-5.361-1.34,10.706,10.706,0,0,0-5.4,1.34,9.385,9.385,0,0,0-3.64,3.75,11.83,11.83,0,0,0-1.3,5.71v1.84a11.643,11.643,0,0,0,1.49,5.94,9.827,9.827,0,0,0,4.21,3.91,14.369,14.369,0,0,0,6.4,1.34,15.439,15.439,0,0,0,5.79-1,14.014,14.014,0,0,0,4.56-2.99l6.36,6.9a18.5,18.5,0,0,1-7.13,4.94,26.328,26.328,0,0,1-9.88,1.72" fill="#472681"/>
    <path id="Path_72161" data-name="Path 72161" d="M671.869,361.084a40.325,40.325,0,0,1-10.15-1.26,25.031,25.031,0,0,1-7.7-3.18l3.98-8.58a26.259,26.259,0,0,0,6.7,2.87,27.549,27.549,0,0,0,7.62,1.11q4.14,0,5.86-1a3.049,3.049,0,0,0,1.72-2.76,2.341,2.341,0,0,0-1.34-2.18,11.973,11.973,0,0,0-3.56-1.11c-1.48-.25-3.1-.51-4.87-.77s-3.54-.6-5.33-1.03a17.8,17.8,0,0,1-4.9-1.95,10,10,0,0,1-3.56-3.52,12.223,12.223,0,0,1,.92-12.65,14.988,14.988,0,0,1,6.55-4.71,27.492,27.492,0,0,1,10.27-1.72,41.76,41.76,0,0,1,8.58.92,23.361,23.361,0,0,1,7.28,2.68l-3.98,8.5a20.243,20.243,0,0,0-6.01-2.41,28.115,28.115,0,0,0-5.86-.65,12.041,12.041,0,0,0-5.82,1.07,3.163,3.163,0,0,0-1.84,2.76,2.5,2.5,0,0,0,1.34,2.3,12.342,12.342,0,0,0,3.56,1.23c1.48.31,3.1.57,4.87.8a44.129,44.129,0,0,1,5.32,1.03,19.372,19.372,0,0,1,4.87,1.95,10.131,10.131,0,0,1,3.56,3.45,10.563,10.563,0,0,1,1.38,5.71,10.735,10.735,0,0,1-2.3,6.78,15.1,15.1,0,0,1-6.63,4.64,29.212,29.212,0,0,1-10.53,1.68" fill="#472681"/>
    <path id="Path_72162" data-name="Path 72162" d="M706.989,344.234c-1.76-.25-3.54-.6-5.33-1.03a17.806,17.806,0,0,1-4.9-1.95,10,10,0,0,1-3.56-3.52,12.223,12.223,0,0,1,.92-12.65,14.988,14.988,0,0,1,6.55-4.71,27.492,27.492,0,0,1,10.27-1.72,41.757,41.757,0,0,1,8.58.92,23.36,23.36,0,0,1,7.28,2.68l-3.98,8.5a20.243,20.243,0,0,0-6.01-2.41,28.118,28.118,0,0,0-5.86-.65,12.04,12.04,0,0,0-5.82,1.07,3.163,3.163,0,0,0-1.84,2.76,2.5,2.5,0,0,0,1.34,2.3,12.341,12.341,0,0,0,3.56,1.23c1.48.31,3.1.57,4.87.8a44.133,44.133,0,0,1,5.32,1.03,19.372,19.372,0,0,1,4.87,1.95,10.132,10.132,0,0,1,3.56,3.45,10.564,10.564,0,0,1,1.38,5.71,10.735,10.735,0,0,1-2.3,6.78,15.1,15.1,0,0,1-6.63,4.64,29.219,29.219,0,0,1-10.54,1.69,40.325,40.325,0,0,1-10.15-1.26,25.03,25.03,0,0,1-7.7-3.18l3.98-8.58a26.261,26.261,0,0,0,6.7,2.87,27.551,27.551,0,0,0,7.62,1.11q4.14,0,5.86-1a3.049,3.049,0,0,0,1.72-2.76,2.341,2.341,0,0,0-1.34-2.18,11.973,11.973,0,0,0-3.56-1.11q-2.2-.405-4.86-.78" fill="#472681"/>
    <path id="Path_72163" data-name="Path 72163" d="M751.32,361.084a24.113,24.113,0,0,1-11.68-2.76,20.975,20.975,0,0,1-8.05-7.55,21.816,21.816,0,0,1,0-21.91,20.728,20.728,0,0,1,8.05-7.51,26.373,26.373,0,0,1,23.33,0,20.41,20.41,0,0,1,8.04,7.47,20.972,20.972,0,0,1-8.04,29.5,24.246,24.246,0,0,1-11.65,2.76m0-9.8a10.463,10.463,0,0,0,5.36-1.38,9.73,9.73,0,0,0,3.75-3.95,14.216,14.216,0,0,0,0-12.22,9.88,9.88,0,0,0-3.75-3.91,11.1,11.1,0,0,0-10.72,0,10.116,10.116,0,0,0-3.791,3.91,13.864,13.864,0,0,0,0,12.22,10.091,10.091,0,0,0,3.791,3.95,10.46,10.46,0,0,0,5.36,1.38" fill="#472681"/>
    <path id="Path_72164" data-name="Path 72164" d="M409.659,339.114v-19.34h4.07v8.16l-.26,4.14.08,4.17v2.87Zm8.28.2a6.2,6.2,0,0,1-3.18-.78,4.989,4.989,0,0,1-2.03-2.38,10.08,10.08,0,0,1-.7-4.05,9.692,9.692,0,0,1,.74-4.06,5.259,5.259,0,0,1,2.07-2.37,6.023,6.023,0,0,1,3.1-.78,7.152,7.152,0,0,1,3.56.89,6.526,6.526,0,0,1,2.5,2.5,8.37,8.37,0,0,1,0,7.63,6.553,6.553,0,0,1-2.5,2.51,7.152,7.152,0,0,1-3.56.89m-.7-3.33a3.512,3.512,0,0,0,1.81-.47,3.445,3.445,0,0,0,1.28-1.34,4.725,4.725,0,0,0,0-4.15,3.418,3.418,0,0,0-3.09-1.8,3.549,3.549,0,0,0-1.82.47,3.415,3.415,0,0,0-1.28,1.33,4.815,4.815,0,0,0,0,4.15,3.31,3.31,0,0,0,1.28,1.34,3.549,3.549,0,0,0,1.82.47" fill="#472681"/>
    <path id="Path_72165" data-name="Path 72165" d="M428.629,344.374a6.962,6.962,0,0,1-2.16-.34,4.944,4.944,0,0,1-1.75-.94l1.49-2.89a3.459,3.459,0,0,0,1.08.65,3.283,3.283,0,0,0,1.21.23,2.147,2.147,0,0,0,1.37-.4,3.446,3.446,0,0,0,.92-1.34l.73-1.72.31-.44,5.03-12.09h3.91l-6.33,14.88a8.928,8.928,0,0,1-1.55,2.66,4.859,4.859,0,0,1-1.93,1.35,6.662,6.662,0,0,1-2.33.39m2.4-4.72-6.25-14.57h4.2l4.85,11.73Z" fill="#472681"/>
    <path id="Path_72166" data-name="Path 72166" d="M100.289,286.314q-35.685-2.835-57.78-17.84T9.939,230.8q-10.485-22.65-9.91-50.13a192.455,192.455,0,0,1,9.35-54.95,207.1,207.1,0,0,1,25.49-52.4,191.69,191.69,0,0,1,38.8-42.77,144.43,144.43,0,0,1,49-26.06q26.9-8.2,55.8-1.42t45.88,22.94a92.757,92.757,0,0,1,24.36,37.67q7.35,21.54,5.95,46.73a187.661,187.661,0,0,1-9.91,50.13,226.258,226.258,0,0,1-23.22,48.15,204.14,204.14,0,0,1-33.7,40.78,156.079,156.079,0,0,1-41.35,27.76,98.69,98.69,0,0,1-46.19,9.08m-20.96-99.13c0,2.27.09,4.81.28,7.65s.47,5.66.85,8.5a39.67,39.67,0,0,0,1.98,8.21,10.271,10.271,0,0,0,4.25,5.67,69.972,69.972,0,0,0,35.97-15.86A120.318,120.318,0,0,0,149,170.194a156.917,156.917,0,0,0,16.43-38.8,194.38,194.38,0,0,0,6.8-39.37q-1.7-20.4-9.63-24.36t-18.41.85Q133.7,73.329,123.229,83.8a168.273,168.273,0,0,0-16.71,18.98,144.278,144.278,0,0,0-20.11,39.94,142.8,142.8,0,0,0-7.08,44.46" fill="#472681"/>
    <path id="Path_72167" data-name="Path 72167" d="M301.549,291.894a147.054,147.054,0,0,1-39.04-6.47,112.8,112.8,0,0,1-35.16-17.26,21.969,21.969,0,0,1-6.47-9.92,27.982,27.982,0,0,1-1.08-11.43,24.579,24.579,0,0,1,3.88-10.79,24.909,24.909,0,0,1,8.41-7.98,29.567,29.567,0,0,1,13.59-4.31,79.788,79.788,0,0,1,14.24.43,134.016,134.016,0,0,1,14.45,2.59,136.77,136.77,0,0,0,14.24,2.59h3.45a7.587,7.587,0,0,0,3.45-.86q3.015-3.015,1.29-8.63a58.062,58.062,0,0,0-6.47-13.16q-4.755-7.545-11-15.96t-12.08-17.04a148.417,148.417,0,0,1-9.71-16.39q-3.885-7.77-3.88-14.24-3.03-20.715,5.61-37.97a87.919,87.919,0,0,1,23.94-29.55,104.723,104.723,0,0,1,34.73-18.34,96.861,96.861,0,0,1,37.97-4.31,64.941,64.941,0,0,1,22.43,5.82,56.437,56.437,0,0,1,18.55,13.59,36.159,36.159,0,0,1,7.55,12.08,21.647,21.647,0,0,1,1.08,12.3,20.779,20.779,0,0,1-5.82,10.35q-4.53,4.53-12.73,5.82a171.061,171.061,0,0,1-22.87,1.08,39.336,39.336,0,0,0-21.57,5.82q-8.64,5.175-11.65,11.43a21.787,21.787,0,0,0-1.94,13.16,36.561,36.561,0,0,0,5.39,13.81,60.943,60.943,0,0,0,10.35,12.51,184.019,184.019,0,0,1,12.73,17.04,84.5,84.5,0,0,1,9.27,18.77q6.9,17.265,4.1,32.79a59.153,59.153,0,0,1-12.51,27.4,68.5,68.5,0,0,1-24.59,18.77,71.443,71.443,0,0,1-32.13,6.46" fill="#472681"/>
    <path id="Path_72168" data-name="Path 72168" d="M559.539,61.514a21.372,21.372,0,0,1,9.49,7.33,28.645,28.645,0,0,1,5.18,11,22.93,22.93,0,0,1-.43,11.65,16.024,16.024,0,0,1-7.33,9.27,45.724,45.724,0,0,1-18.55,7.77q-9.93,1.725-19.85,3.88-12.945,2.16-25.89,4.31t-25.88,4.31a35.457,35.457,0,0,0-1.51,3.45,35.769,35.769,0,0,1-1.51,3.45q-2.6,6.045-5.18,11.65t-4.75,11.65l9.49-1.29a166.754,166.754,0,0,1,23.3-1.94,58.4,58.4,0,0,1,22.43,3.67,22.646,22.646,0,0,1,9.49,6.9,21.269,21.269,0,0,1,4.75,10.14,16.4,16.4,0,0,1-1.51,10.14q-2.37,4.755-9.28,7.34-5.175,2.58-10.35,4.75a66.873,66.873,0,0,1-10.79,3.45q-14.235,3.465-28.26,7.55-14.025,4.11-27.83,7.12l-9.06,31.92,36.24-7.33a144.425,144.425,0,0,1,19.2-3.02,44.235,44.235,0,0,1,19.2,2.59,43.529,43.529,0,0,1,7.98,3.67,35.4,35.4,0,0,1,7.34,5.61,20,20,0,0,1,4.75,7.55,13.17,13.17,0,0,1-.22,9.06q-1.725,7.77-6.47,12.08a34.776,34.776,0,0,1-10.79,6.69,60.966,60.966,0,0,1-13.16,3.45c-4.75.71-9.13,1.51-13.16,2.37q-15.96,3.45-31.71,5.61a236.261,236.261,0,0,1-32.14,2.16,51.337,51.337,0,0,0-8.2-.22,34.872,34.872,0,0,1-8.63-.65q-12.09-.435-17.47-6.04a27.521,27.521,0,0,1-7.12-13.59,56.473,56.473,0,0,1-.86-17.26q.855-9.27,1.73-17.9a505.208,505.208,0,0,1,10.57-61.05q7.125-29.985,14.45-60.18l9.06-31.92a21.727,21.727,0,0,1,7.98-11.22,36.328,36.328,0,0,1,12.3-6.04l19.41-3.45,20.28-3.02q11.205-1.725,22.65-2.37T522,55.484q10.35,0,18.98.65a52.286,52.286,0,0,1,18.56,5.38" fill="#472681"/>
    <path id="Path_72169" data-name="Path 72169" d="M629,110.694q-8.64.435-20.06.43a74.918,74.918,0,0,1-21.57-3.02,34.366,34.366,0,0,1-16.18-9.71q-6.047-6.69-3.45-19.2,3.449-9.48,14.669-12.73a95.713,95.713,0,0,1,25.021-3.45q13.8-.21,27.609.86a130.936,130.936,0,0,0,22.43.22,81,81,0,0,1,24.161,1.94q12.075,2.805,20.06,9.49a30.453,30.453,0,0,1,10.349,16.83q2.371,10.14-5.389,23.94a336.831,336.831,0,0,1-22.22,30.42q-11.865,14.46-24.16,28.47t-24.81,28.26a368.708,368.708,0,0,0-23.3,29.34q6.465-.42,17.041-1.29,10.56-.855,21.79-.65a161.054,161.054,0,0,1,22,1.93q10.785,1.725,17.9,5.99a18.9,18.9,0,0,1,9.06,11.76q1.935,7.485-3.67,19.02-3.03,3.435-9.921,5.35a110.817,110.817,0,0,1-14.669,2.99c-5.18.71-10.35,1.27-15.531,1.71q-7.77.63-12.94,1.5-9.93.42-21.139,1.94-11.222,1.5-22.65,2.37a112.225,112.225,0,0,1-22-.43,44.817,44.817,0,0,1-18.77-6.47,34.525,34.525,0,0,1-10.35-11.75,29.578,29.578,0,0,1-3.451-13.89,34.523,34.523,0,0,1,3.021-14.11,46.551,46.551,0,0,1,8.63-12.88q23.715-29.34,47.89-58.03,24.15-28.68,48.75-57.16Z" fill="#472681"/>
    <path id="Path_72170" data-name="Path 72170" d="M752.549,302.934c-.15.32-.29.64-.44.97,0,0,.18-.34.44-.97" fill="#462681"/>
    <path id="Path_72171" data-name="Path 72171" d="M752.549,305.354l-.01-.01Z" fill="#462681"/>
    <path id="Path_72172" data-name="Path 72172" d="M750.029,302.534q.24.585.51,1.17s-.17-.44-.51-1.17" fill="#462681"/>
    <path id="Path_72173" data-name="Path 72173" d="M770.919,281.074a32.057,32.057,0,0,0-12.41,7.4c.67-5.15-4.24-14.87-4.24-14.87a57.266,57.266,0,0,1,15.28-14.83c3.15,13.18,1.37,22.3,1.37,22.3m-26.45,7.37s-7.49-6.31-12.6-7.49c0,0-1.06-14.81,1.59-22.26,0,0,9.42,6.82,14.99,14.84,0,0-4.69,8.5-3.98,14.91m31.33-8.59c2.81-7.6-2.39-31.56-2.39-31.56-11.7,7.71-22.09,20.19-22.09,20.19-6.23-9.56-21.84-20.29-21.84-20.29-3.98,15.46-2.71,31.58-2.71,31.58-14.31-2.34-30.44,1.08-30.44,1.08,30.33,48.77,53.91,24.31,53.91,24.31-24.06,15.12-43.67-19.63-43.67-19.63,10.46-2.21,21.57-.06,21.57-.06,5.3,18.29,21.82,18.95,21.82,18.95-14.36-3.07-17.07-17.88-17.07-17.88,10.11,2.58,15.54,12.55,17.14,15.98-5.82-14.07,1.26-24.24,1.26-24.24,6.76,9.62,2.69,21.25,1.26,24.64,6.56-14.06,17.33-16.3,17.33-16.3-4.35,16.26-17.11,17.77-17.11,17.77,18.91-2.11,21.86-18.92,21.86-18.92,10.21-1.95,21.72.22,21.72.22-21.69,35.37-43.26,20.04-43.8,19.65,29.73,21.93,53.68-24.07,53.68-24.07-15.12-3.48-30.43-1.42-30.43-1.42" fill="#462681"/>
  </g>
</svg>
